<svg width="33" height="31" viewBox="0 0 33 31" fill="none" xmlns="http://www.w3.org/2000/svg">
<path d="M32.2016 6.35283C31.6896 5.10966 30.9513 3.98311 30.0281 3.03624C29.1042 2.08654 28.0149 1.33184 26.8194 0.813155C25.5797 0.273179 24.2502 -0.0032116 22.9078 2.81545e-05C21.0246 2.81545e-05 19.1873 0.540778 17.5906 1.56219C17.2086 1.80653 16.8457 2.0749 16.5019 2.36731C16.1581 2.0749 15.7952 1.80653 15.4132 1.56219C13.8165 0.540778 11.9791 2.81545e-05 10.0959 2.81545e-05C8.73989 2.81545e-05 7.42585 0.272406 6.18439 0.813155C4.98495 1.33388 3.90392 2.08292 2.97569 3.03624C2.05126 3.98204 1.31281 5.10886 0.802175 6.35283C0.271212 7.64663 0 9.02053 0 10.4345C0 11.7683 0.259752 13.1583 0.775436 14.5722C1.20708 15.7539 1.8259 16.9796 2.61662 18.2173C3.86954 20.176 5.59231 22.2188 7.73144 24.2897C11.2763 27.7225 14.7868 30.0937 14.9357 30.1899L15.8411 30.7987C16.2421 31.0671 16.7578 31.0671 17.1589 30.7987L18.0642 30.1899C18.2132 30.0897 21.7198 27.7225 25.2685 24.2897C27.4077 22.2188 29.1304 20.176 30.3833 18.2173C31.1741 16.9796 31.7967 15.7539 32.2245 14.5722C32.7402 13.1583 33 11.7683 33 10.4345C33.0038 9.02053 32.7326 7.64663 32.2016 6.35283V6.35283ZM16.5019 27.6303C16.5019 27.6303 2.90311 18.4937 2.90311 10.4345C2.90311 6.35283 6.12327 3.04425 10.0959 3.04425C12.8883 3.04425 15.3101 4.67851 16.5019 7.06582C17.6937 4.67851 20.1155 3.04425 22.9078 3.04425C26.8805 3.04425 30.1007 6.35283 30.1007 10.4345C30.1007 18.4937 16.5019 27.6303 16.5019 27.6303Z" />
</svg>
